HIERARCHY
ROOT Hips
{
	OFFSET 43.580002 -9.713614 83.963203
	CHANNELS 6 Xposition Yposition Zposition Xrotation Yrotation Zrotation
	JOINT spine
	{
		OFFSET 0.000000 -0.359108 6.244797
		CHANNELS 3 Xrotation Yrotation Zrotation
		JOINT spine1
		{
			OFFSET 0.000000 -0.000002 9.069412
			CHANNELS 3 Xrotation Yrotation Zrotation
			JOINT spine2
			{
				OFFSET 0.000000 -0.000001 8.690140
				CHANNELS 3 Xrotation Yrotation Zrotation
				JOINT Neck
				{
					OFFSET 0.000000 -1.063724 22.311195
					CHANNELS 3 Xrotation Yrotation Zrotation
					JOINT Head
					{
						OFFSET 0.000000 -0.000001 6.740814
						CHANNELS 3 Xrotation Yrotation Zrotation
						End Site
						{
							OFFSET 0.000000 5.380967 16.316498
						}
					}
				}
				JOINT RightShoulder
				{
					OFFSET -3.659161 0.509512 9.384682
					CHANNELS 3 Xrotation Yrotation Zrotation
					JOINT RightArm
					{
						OFFSET 0.000000 -0.000002 12.308899
						CHANNELS 3 Xrotation Yrotation Zrotation
						JOINT RightArmRoll
						{
							OFFSET 0.000000 -0.000001 6.213745
							CHANNELS 3 Xrotation Yrotation Zrotation
							JOINT RightForeArm
							{
								OFFSET 0.000000 -0.000003 18.098495
								CHANNELS 3 Xrotation Yrotation Zrotation
								JOINT RightForeArmRoll
								{
									OFFSET 0.000000 -0.000001 6.972794
									CHANNELS 3 Xrotation Yrotation Zrotation
									JOINT RightHand
									{
										OFFSET 0.000000 -0.000003 13.992905
										CHANNELS 3 Xrotation Yrotation Zrotation
										End Site
										{
											OFFSET 0.000000 0.000000 0.100006
										}
									}
								}
							}
						}
					}
				}
				JOINT LeftShoulder
				{
					OFFSET 3.659161 0.509512 9.384682
					CHANNELS 3 Xrotation Yrotation Zrotation
					JOINT LeftArm
					{
						OFFSET 0.000000 -0.000002 12.308899
						CHANNELS 3 Xrotation Yrotation Zrotation
						JOINT LeftArmRoll
						{
							OFFSET 0.000000 -0.000001 6.213745
							CHANNELS 3 Xrotation Yrotation Zrotation
							JOINT LeftForeArm
							{
								OFFSET 0.000000 -0.000003 18.098495
								CHANNELS 3 Xrotation Yrotation Zrotation
								JOINT LeftForeArmRoll
								{
									OFFSET 0.000000 -0.000001 6.972794
									CHANNELS 3 Xrotation Yrotation Zrotation
									JOINT LeftHand
									{
										OFFSET 0.000000 -0.000003 13.992905
										CHANNELS 3 Xrotation Yrotation Zrotation
										End Site
										{
											OFFSET 0.000000 0.000000 0.100006
										}
									}
								}
							}
						}
					}
				}
			}
		}
	}
	JOINT RightUpLeg
	{
		OFFSET -5.535160 0.851454 -1.014999
		CHANNELS 3 Xrotation Yrotation Zrotation
		JOINT RightUpLegRoll
		{
			OFFSET 0.000000 -0.000003 16.407501
			CHANNELS 3 Xrotation Yrotation Zrotation
			JOINT RightLeg
			{
				OFFSET 0.000000 0.000003 -20.318100
				CHANNELS 3 Xrotation Yrotation Zrotation
				JOINT RightLegRoll
				{
					OFFSET 0.000000 -0.000003 20.384598
					CHANNELS 3 Xrotation Yrotation Zrotation
					JOINT RightFoot
					{
						OFFSET 0.000000 -0.000003 16.966805
						CHANNELS 3 Xrotation Yrotation Zrotation
						JOINT RightToeBase
						{
							OFFSET 0.000000 -0.000002 14.183395
							CHANNELS 3 Xrotation Yrotation Zrotation
							End Site
							{
								OFFSET 0.006012 0.791745 6.868896
							}
						}
					}
				}
			}
		}
	}
	JOINT LeftUpLeg
	{
		OFFSET 5.535160 0.851454 -1.014999
		CHANNELS 3 Xrotation Yrotation Zrotation
		JOINT LeftUpLegRoll
		{
			OFFSET 0.000000 -0.000003 16.407600
			CHANNELS 3 Xrotation Yrotation Zrotation
			JOINT LeftLeg
			{
				OFFSET 0.000000 -0.000003 20.318100
				CHANNELS 3 Xrotation Yrotation Zrotation
				JOINT LeftLegRoll
				{
					OFFSET 0.000000 -0.000004 20.573105
					CHANNELS 3 Xrotation Yrotation Zrotation
					JOINT LeftFoot
					{
						OFFSET 0.000000 -0.000003 16.778305
						CHANNELS 3 Xrotation Yrotation Zrotation
						JOINT LeftToeBase
						{
							OFFSET 0.000000 -0.000002 14.183395
							CHANNELS 3 Xrotation Yrotation Zrotation
							End Site
							{
								OFFSET -0.026943 0.791745 6.868896
							}
						}
					}
				}
			}
		}
	}
}
MOTION
Frames: 9
Frame Time: 0.041667
43.003098 -12.508314 83.928894 1.495095 -1.194527 -10.225224 -0.958829 -0.113045 -0.153133 2.083637 -0.224430 -0.301371 3.728711 -0.228026 -0.298655 12.489289 -6.743741 8.324863 -1.551450 15.575563 7.928936 -1.267426 -68.108550 -2.468719 119.126914 -33.101388 80.171961 -0.000001 0.000001 0.000002 50.801567 -24.224367 10.932805 0.000003 0.000000 -3.000000 -5.000140 -7.999716 -0.000130 -12.466243 57.865690 14.648135 107.463628 75.101304 -66.435597 -0.000000 -0.000001 -0.000001 94.706167 -2.179229 12.699552 0.000019 -0.000016 3.000002 -5.000045 7.999941 -0.000047 -11.714154 -171.476544 1.691818 -179.999991 0.000006 -0.878001 165.951276 -0.687791 -1.202104 -0.000004 -0.000000 -0.020022 67.974425 6.064811 4.291649 25.464141 -7.349170 0.000230 -2.724703 173.478322 -3.597939 -0.000005 -0.000004 -1.053810 -14.022878 0.734503 0.804962 -0.000003 0.000004 -0.608302 75.850480 -6.672980 -2.242003 25.864905 7.346486 -0.575450 
42.982197 -12.503517 83.929985 1.504098 -1.195432 -10.226813 -0.961177 -0.113354 -0.152810 2.079036 -0.224357 -0.301106 3.724111 -0.227954 -0.298387 12.516403 -6.698154 8.348977 -1.566598 15.537671 7.951570 -1.217329 -68.128835 -2.414786 118.984518 -33.350875 80.248569 -0.000000 -0.000001 -0.000002 50.848675 -24.122379 10.878746 0.000004 -0.000003 -3.000001 -5.000142 -7.999711 -0.000129 -12.544427 57.880116 14.741946 108.084404 75.010585 -67.300880 0.000000 -0.000000 0.000001 94.629074 -2.128487 12.591038 0.000017 -0.000013 2.999999 -5.000042 7.999938 -0.000049 -11.716748 -171.487417 1.695381 -179.999991 0.000005 -0.877006 165.965209 -0.705300 -1.202300 -0.000003 -0.000000 -0.020130 67.966174 6.062669 4.296885 25.464142 -7.349175 0.000233 -2.738845 173.467407 -3.594212 -0.000005 -0.000004 -1.053810 -14.033743 0.723185 0.804251 -0.000003 0.000004 -0.609200 75.848274 -6.673013 -2.241837 25.867742 7.346493 -0.580338 
42.931400 -12.484316 83.928596 1.513241 -1.196316 -10.229297 -0.963554 -0.113729 -0.152502 2.074376 -0.224350 -0.300857 3.719451 -0.227949 -0.298135 12.542893 -6.651690 8.372617 -1.580128 15.499386 7.973508 -1.164446 -68.149415 -2.357798 118.845374 -33.598032 80.327095 0.000000 -0.000000 -0.000002 50.895264 -24.022474 10.825071 0.000002 -0.000003 -3.000001 -5.000142 -7.999710 -0.000128 -12.624648 57.894391 14.838203 108.692584 74.918617 -68.151846 0.000001 -0.000001 -0.000002 94.552180 -2.076729 12.483552 0.000022 -0.000015 3.000002 -5.000043 7.999944 -0.000052 -11.718946 -171.498250 1.700016 -179.999991 0.000006 -0.875994 165.981356 -0.725721 -1.202187 -0.000003 -0.000000 -0.020290 67.956270 6.060587 4.301922 25.464144 -7.349173 0.000232 -2.752843 173.457503 -3.590592 -0.000005 -0.000004 -1.053799 -14.044408 0.711958 0.803548 -0.000002 0.000004 -0.610066 75.845938 -6.673012 -2.241778 25.870667 7.346493 -0.585420 
42.915001 -12.476517 83.923584 1.522465 -1.197191 -10.232482 -0.965949 -0.114150 -0.152200 2.069676 -0.224386 -0.300621 3.714750 -0.227987 -0.297895 12.569068 -6.604600 8.395934 -1.592534 15.460709 7.994980 -1.109595 -68.170390 -2.298633 118.707991 -33.844578 80.405629 -0.000002 -0.000001 0.000002 50.941525 -23.923931 10.771717 0.000003 0.000000 -2.999999 -5.000142 -7.999711 -0.000130 -12.706273 57.908379 14.936155 109.289836 74.825146 -68.990682 -0.000000 0.000000 -0.000000 94.475641 -2.024329 12.376106 0.000021 -0.000013 3.000004 -5.000047 7.999941 -0.000053 -11.720830 -171.509110 1.705407 -179.999991 0.000006 -0.874997 165.998787 -0.746162 -1.202050 -0.000003 -0.000001 -0.020486 67.945158 6.058619 4.306847 25.464142 -7.349173 0.000231 -2.766743 173.446575 -3.586950 -0.000005 -0.000004 -1.053790 -14.054974 0.700791 0.802849 -0.000002 0.000004 -0.610909 75.843602 -6.672985 -2.241612 25.873699 7.346495 -0.590628 
42.918400 -12.478416 83.923103 1.531757 -1.198066 -10.235967 -0.968357 -0.114597 -0.151902 2.064946 -0.224449 -0.300394 3.710030 -0.228052 -0.297662 12.594930 -6.557140 8.419030 -1.604279 15.421838 8.016151 -1.053562 -68.191359 -2.238165 118.571906 -34.091100 80.484094 0.000002 0.000000 0.000000 50.987584 -23.826273 10.718375 0.000003 -0.000001 -3.000000 -5.000144 -7.999707 -0.000128 -12.788780 57.922320 15.035152 109.877752 74.730397 -69.819621 -0.000001 0.000000 -0.000002 94.399300 -1.971364 12.267738 0.000025 -0.000014 2.999999 -5.000040 7.999940 -0.000048 -11.722650 -171.518959 1.711020 -179.999991 0.000005 -0.874000 166.017023 -0.766595 -1.201885 -0.000003 -0.000000 -0.020707 67.933437 6.056721 4.311521 25.464141 -7.349171 0.000232 -2.780582 173.435660 -3.583319 -0.000005 -0.000004 -1.053780 -14.065442 0.689661 0.802150 -0.000002 0.000004 -0.611740 75.841177 -6.673001 -2.241355 25.876832 7.346492 -0.595910 
42.884102 -12.471918 83.925301 1.541052 -1.198930 -10.239546 -0.970767 -0.115052 -0.151606 2.060226 -0.224519 -0.300166 3.705300 -0.228123 -0.297430 12.620695 -6.509576 8.442043 -1.615869 15.382868 8.037247 -0.997156 -68.212416 -2.177298 118.437898 -34.337287 80.564711 0.000000 -0.000000 0.000002 51.033821 -23.728868 10.664980 0.000004 -0.000003 -3.000001 -5.000141 -7.999711 -0.000129 -12.871455 57.935994 15.134379 110.457239 74.634222 -70.640084 0.000000 -0.000003 0.000006 94.323260 -1.918053 12.160402 0.000024 -0.000013 2.999998 -5.000046 7.999942 -0.000048 -11.724370 -171.528808 1.716746 -179.999991 0.000006 -0.873003 166.035560 -0.788000 -1.201945 -0.000003 -0.000000 -0.020929 67.921594 6.054768 4.316287 25.464142 -7.349173 0.000233 -2.794414 173.424759 -3.579696 -0.000005 -0.000004 -1.053770 -14.076011 0.678540 0.801451 -0.000003 0.000004 -0.612567 75.838637 -6.673034 -2.241212 25.879867 7.346493 -0.601208 
42.864201 -12.475218 83.927292 1.550319 -1.199804 -10.242930 -0.973172 -0.115493 -0.151303 2.055506 -0.224575 -0.299935 3.700590 -0.228181 -0.297194 12.646671 -6.462163 8.465100 -1.627757 15.344097 8.058451 -0.941192 -68.233337 -2.116896 118.304341 -34.584758 80.645362 -0.000000 0.000000 0.000000 51.080260 -23.631314 10.611288 0.000003 -0.000003 -3.000000 -5.000142 -7.999710 -0.000128 -12.953836 57.949756 15.233263 111.030442 74.536762 -71.454816 -0.000001 -0.000002 -0.000002 94.247315 -1.864643 12.053147 0.000022 -0.000011 2.999998 -5.000049 7.999939 -0.000051 -11.726186 -171.538671 1.722256 -179.999991 0.000006 -0.872005 166.053578 -0.809419 -1.201999 -0.000003 -0.000001 -0.021143 67.910071 6.052808 4.321138 25.464141 -7.349173 0.000231 -2.808278 173.413858 -3.576055 -0.000005 -0.000003 -1.053760 -14.086577 0.667402 0.800745 -0.000002 0.000004 -0.613400 75.836301 -6.673006 -2.241048 25.882993 7.346492 -0.606479 
42.831402 -12.483616 83.932503 1.559524 -1.200689 -10.245913 -0.975563 -0.115900 -0.151000 2.050816 -0.224600 -0.299697 3.695900 -0.228207 -0.296951 12.672862 -6.415163 8.488319 -1.640455 15.305421 8.079975 -0.886465 -68.254039 -2.057894 118.171466 -34.833774 80.727112 -0.000001 -0.000001 0.000001 51.127019 -23.532934 10.557062 0.000004 -0.000003 -3.000001 -5.000141 -7.999709 -0.000127 -13.035271 57.963458 15.331032 111.598440 74.437915 -72.265498 0.000000 0.000002 -0.000000 94.171520 -1.811190 11.945974 0.000023 -0.000015 3.000001 -5.000047 7.999941 -0.000052 -11.728211 -171.548520 1.727229 -179.999991 0.000005 -0.870994 166.070613 -0.829858 -1.201815 -0.000003 0.000000 -0.021331 67.899368 6.050798 4.326032 25.464139 -7.349173 0.000231 -2.822206 173.403941 -3.572428 -0.000005 -0.000003 -1.053750 -14.097144 0.656220 0.800026 -0.000002 0.000005 -0.614250 75.833869 -6.673018 -2.240892 25.885927 7.346500 -0.611644 
42.813900 -12.450915 83.929893 1.568626 -1.201593 -10.248196 -0.977929 -0.116256 -0.150687 2.046175 -0.224572 -0.299444 3.691260 -0.228181 -0.296694 12.699472 -6.368824 8.511830 -1.654445 15.267230 8.102017 -0.833813 -68.274414 -2.001165 118.038236 -35.085500 80.808924 -0.000001 0.000001 -0.000001 51.174584 -23.433266 10.502387 0.000004 0.000000 -3.000000 -5.000139 -7.999710 -0.000129 -13.115136 57.977180 15.426933 112.162546 74.337778 -73.073960 0.000001 -0.000000 0.000001 94.095944 -1.758047 11.838863 0.000020 -0.000009 2.999998 -5.000051 7.999941 -0.000052 -11.730511 -171.559367 1.731552 -179.999991 0.000005 -0.869997 166.086035 -0.848358 -1.202157 -0.000003 0.000000 -0.021475 67.889902 6.048742 4.331047 25.464142 -7.349173 0.000232 -2.836252 173.393026 -3.568713 -0.000005 -0.000005 -1.053740 -14.107814 0.644965 0.799293 -0.000004 0.000003 -0.615126 75.831643 -6.673000 -2.240821 25.888852 7.346501 -0.616666 
